<svg width="200" height="200" viewBox="0 0 200 200" fill="none" xmlns="http://www.w3.org/2000/svg">
<path d="M192 0H8C3.575 0 0 3.575 0 8V192C0 196.425 3.575 200 8 200H192C196.425 200 200 196.425 200 192V8C200 3.575 196.425 0 192 0ZM121.625 59.725H156.225V68.15H121.625V59.725ZM100 129.2C98.3817 132.272 96.0707 134.925 93.25 136.95C90.3 139 87.025 140.5 83.55 141.375C79.9143 142.349 76.1638 142.829 72.4 142.8H31V57.525H71.25C75.325 57.525 79.025 57.9 82.4 58.6C85.75 59.3 88.6 60.5 91 62.125C93.375 63.75 95.25 65.925 96.575 68.625C97.875 71.3 98.55 74.65 98.55 78.625C98.55 82.925 97.575 86.475 95.625 89.35C93.65 92.225 90.8 94.55 86.925 96.375C92.2 97.875 96.075 100.55 98.625 104.3C101.225 108.1 102.5 112.65 102.5 118C102.5 122.35 101.675 126.075 100 129.2ZM169.7 116H125.1C125.1 120.85 126.775 125.5 129.3 128C131.85 130.475 135.5 131.725 140.275 131.725C143.725 131.725 146.65 130.85 149.15 129.125C151.625 127.4 153.125 125.575 153.675 123.675H168.625C166.225 131.1 162.575 136.4 157.625 139.6C152.725 142.8 146.725 144.4 139.75 144.4C134.875 144.4 130.5 143.6 126.575 142.075C122.8 140.6 119.4 138.35 116.6 135.45C113.839 132.472 111.705 128.969 110.325 125.15C108.8 120.925 108.05 116.475 108.1 112C108.1 107.375 108.875 103.075 110.375 99.075C113.25 91.3 119.225 85.075 126.85 81.85C130.925 80.15 135.3 79.3 139.725 79.35C144.975 79.35 149.525 80.35 153.475 82.4C157.278 84.3576 160.579 87.1631 163.125 90.6C165.65 94.025 167.425 97.925 168.55 102.325C169.625 106.65 170 111.2 169.7 116ZM139.2 92.1C136.5 92.1 134.225 92.575 132.475 93.5C130.725 94.425 129.275 95.575 128.175 96.9C127.127 98.1793 126.353 99.6598 125.9 101.25C125.5 102.575 125.225 103.925 125.125 105.3H152.75C152.35 100.975 150.85 97.775 148.85 95.525C146.75 93.3 143.375 92.1 139.2 92.1ZM77.075 89.575C79.25 88 80.3 85.4 80.3 81.825C80.375 80.125 80.025 78.45 79.275 76.925C78.6 75.7 77.6 74.675 76.375 73.95C75.1048 73.1797 73.6941 72.6698 72.225 72.45C70.625 72.15 69 72 67.4 72.025H49.825V91.95H68.85C72.125 91.975 74.9 91.175 77.075 89.575ZM80.025 107.575C77.575 105.7 74.3 104.775 70.225 104.775H49.775V128.275H69.825C71.7 128.275 73.425 128.1 75.1 127.75C76.775 127.4 78.275 126.8 79.55 125.95C80.825 125.125 81.85 124 82.625 122.55C83.375 121.1 83.75 119.25 83.75 117.025C83.75 112.6 82.5 109.475 80.025 107.575Z" fill="black"/>
</svg>
