<svg width="200" height="200" viewBox="0 0 200 200" fill="none" xmlns="http://www.w3.org/2000/svg">
<path d="M99.9978 80.1132C89.0352 80.1132 80.1088 89.0352 80.1088 99.9978C80.1088 110.965 89.0352 119.891 99.9978 119.891C110.965 119.891 119.887 110.965 119.887 99.9978C119.887 89.0352 110.965 80.1132 99.9978 80.1132ZM99.9978 80.1132C89.0352 80.1132 80.1088 89.0352 80.1088 99.9978C80.1088 110.965 89.0352 119.891 99.9978 119.891C110.965 119.891 119.887 110.965 119.887 99.9978C119.887 89.0352 110.965 80.1132 99.9978 80.1132ZM133.131 47.6861H66.8685C56.2921 47.6861 47.6861 56.2921 47.6861 66.8685V133.131C47.6861 143.708 56.2921 152.314 66.8685 152.314H133.131C143.708 152.314 152.314 143.708 152.314 133.131V66.8685C152.314 56.2921 143.708 47.6861 133.131 47.6861ZM99.9978 134.444C81.0085 134.444 65.5564 118.992 65.5564 99.9978C65.5564 81.0085 81.0085 65.5564 99.9978 65.5564C118.992 65.5564 134.444 81.0085 134.444 99.9978C134.444 118.992 118.992 134.444 99.9978 134.444ZM135.55 72.679C131.056 72.679 127.4 69.0233 127.4 64.5294C127.4 60.0355 131.056 56.3799 135.55 56.3799C140.043 56.3799 143.699 60.0355 143.699 64.5294C143.699 69.0233 140.043 72.679 135.55 72.679ZM99.9978 80.1132C89.0352 80.1132 80.1088 89.0352 80.1088 99.9978C80.1088 110.965 89.0352 119.891 99.9978 119.891C110.965 119.891 119.887 110.965 119.887 99.9978C119.887 89.0352 110.965 80.1132 99.9978 80.1132ZM133.131 47.6861H66.8685C56.2921 47.6861 47.6861 56.2921 47.6861 66.8685V133.131C47.6861 143.708 56.2921 152.314 66.8685 152.314H133.131C143.708 152.314 152.314 143.708 152.314 133.131V66.8685C152.314 56.2921 143.708 47.6861 133.131 47.6861ZM99.9978 134.444C81.0085 134.444 65.5564 118.992 65.5564 99.9978C65.5564 81.0085 81.0085 65.5564 99.9978 65.5564C118.992 65.5564 134.444 81.0085 134.444 99.9978C134.444 118.992 118.992 134.444 99.9978 134.444ZM135.55 72.679C131.056 72.679 127.4 69.0233 127.4 64.5294C127.4 60.0355 131.056 56.3799 135.55 56.3799C140.043 56.3799 143.699 60.0355 143.699 64.5294C143.699 69.0233 140.043 72.679 135.55 72.679ZM99.9978 80.1132C89.0352 80.1132 80.1088 89.0352 80.1088 99.9978C80.1088 110.965 89.0352 119.891 99.9978 119.891C110.965 119.891 119.887 110.965 119.887 99.9978C119.887 89.0352 110.965 80.1132 99.9978 80.1132ZM7.80001 0C3.49219 0 0 3.49218 0 7.8V192.2C0 196.508 3.49218 200 7.8 200H192.2C196.508 200 200 196.508 200 192.2V7.80001C200 3.49219 196.508 0 192.2 0H7.80001ZM166.866 133.131C166.866 151.735 151.735 166.866 133.131 166.866H66.8685C48.2654 166.866 33.1337 151.735 33.1337 133.131V66.8685C33.1337 48.2654 48.2654 33.1337 66.8685 33.1337H133.131C151.735 33.1337 166.866 48.2654 166.866 66.8685V133.131ZM133.131 47.6861H66.8685C56.2921 47.6861 47.6861 56.2921 47.6861 66.8685V133.131C47.6861 143.708 56.2921 152.314 66.8685 152.314H133.131C143.708 152.314 152.314 143.708 152.314 133.131V66.8685C152.314 56.2921 143.708 47.6861 133.131 47.6861ZM99.9978 134.444C81.0085 134.444 65.5564 118.992 65.5564 99.9978C65.5564 81.0085 81.0085 65.5564 99.9978 65.5564C118.992 65.5564 134.444 81.0085 134.444 99.9978C134.444 118.992 118.992 134.444 99.9978 134.444ZM135.55 72.679C131.056 72.679 127.4 69.0233 127.4 64.5294C127.4 60.0355 131.056 56.3799 135.55 56.3799C140.043 56.3799 143.699 60.0355 143.699 64.5294C143.699 69.0233 140.043 72.679 135.55 72.679ZM99.9978 80.1132C89.0352 80.1132 80.1088 89.0352 80.1088 99.9978C80.1088 110.965 89.0352 119.891 99.9978 119.891C110.965 119.891 119.887 110.965 119.887 99.9978C119.887 89.0352 110.965 80.1132 99.9978 80.1132ZM99.9978 80.1132C89.0352 80.1132 80.1088 89.0352 80.1088 99.9978C80.1088 110.965 89.0352 119.891 99.9978 119.891C110.965 119.891 119.887 110.965 119.887 99.9978C119.887 89.0352 110.965 80.1132 99.9978 80.1132ZM99.9978 80.1132C89.0352 80.1132 80.1088 89.0352 80.1088 99.9978C80.1088 110.965 89.0352 119.891 99.9978 119.891C110.965 119.891 119.887 110.965 119.887 99.9978C119.887 89.0352 110.965 80.1132 99.9978 80.1132ZM133.131 47.6861H66.8685C56.2921 47.6861 47.6861 56.2921 47.6861 66.8685V133.131C47.6861 143.708 56.2921 152.314 66.8685 152.314H133.131C143.708 152.314 152.314 143.708 152.314 133.131V66.8685C152.314 56.2921 143.708 47.6861 133.131 47.6861ZM99.9978 134.444C81.0085 134.444 65.5564 118.992 65.5564 99.9978C65.5564 81.0085 81.0085 65.5564 99.9978 65.5564C118.992 65.5564 134.444 81.0085 134.444 99.9978C134.444 118.992 118.992 134.444 99.9978 134.444ZM135.55 72.679C131.056 72.679 127.4 69.0233 127.4 64.5294C127.4 60.0355 131.056 56.3799 135.55 56.3799C140.043 56.3799 143.699 60.0355 143.699 64.5294C143.699 69.0233 140.043 72.679 135.55 72.679ZM99.9978 80.1132C89.0352 80.1132 80.1088 89.0352 80.1088 99.9978C80.1088 110.965 89.0352 119.891 99.9978 119.891C110.965 119.891 119.887 110.965 119.887 99.9978C119.887 89.0352 110.965 80.1132 99.9978 80.1132ZM99.9978 80.1132C89.0352 80.1132 80.1088 89.0352 80.1088 99.9978C80.1088 110.965 89.0352 119.891 99.9978 119.891C110.965 119.891 119.887 110.965 119.887 99.9978C119.887 89.0352 110.965 80.1132 99.9978 80.1132ZM99.9978 80.1132C89.0352 80.1132 80.1088 89.0352 80.1088 99.9978C80.1088 110.965 89.0352 119.891 99.9978 119.891C110.965 119.891 119.887 110.965 119.887 99.9978C119.887 89.0352 110.965 80.1132 99.9978 80.1132ZM133.131 47.6861H66.8685C56.2921 47.6861 47.6861 56.2921 47.6861 66.8685V133.131C47.6861 143.708 56.2921 152.314 66.8685 152.314H133.131C143.708 152.314 152.314 143.708 152.314 133.131V66.8685C152.314 56.2921 143.708 47.6861 133.131 47.6861ZM99.9978 134.444C81.0085 134.444 65.5564 118.992 65.5564 99.9978C65.5564 81.0085 81.0085 65.5564 99.9978 65.5564C118.992 65.5564 134.444 81.0085 134.444 99.9978C134.444 118.992 118.992 134.444 99.9978 134.444ZM135.55 72.679C131.056 72.679 127.4 69.0233 127.4 64.5294C127.4 60.0355 131.056 56.3799 135.55 56.3799C140.043 56.3799 143.699 60.0355 143.699 64.5294C143.699 69.0233 140.043 72.679 135.55 72.679ZM99.9978 80.1132C89.0352 80.1132 80.1088 89.0352 80.1088 99.9978C80.1088 110.965 89.0352 119.891 99.9978 119.891C110.965 119.891 119.887 110.965 119.887 99.9978C119.887 89.0352 110.965 80.1132 99.9978 80.1132Z" fill="black"/>
</svg>
