<svg width="200" height="200" viewBox="0 0 200 200" fill="none" xmlns="http://www.w3.org/2000/svg">
<path fill-rule="evenodd" clip-rule="evenodd" d="M170.433 170.417H140.767V124C140.767 112.933 140.583 98.7 125.35 98.7C109.925 98.7 107.567 110.758 107.567 123.217V170.417H77.9333V74.975H106.375V88.025H106.783C110.742 80.525 120.417 72.6083 134.842 72.6083C164.883 72.6083 170.425 92.3667 170.425 118.075V170.417H170.433ZM44.4917 61.9417C39.9277 61.9417 35.5507 60.1287 32.3235 56.9015C29.0963 53.6743 27.2833 49.2973 27.2833 44.7333C27.2833 40.1694 29.0963 35.7924 32.3235 32.5652C35.5507 29.338 39.9277 27.525 44.4917 27.525C49.0556 27.525 53.4326 29.338 56.6598 32.5652C59.887 35.7924 61.7 40.1694 61.7 44.7333C61.7 49.2973 59.887 53.6743 56.6598 56.9015C53.4326 60.1287 49.0556 61.9417 44.4917 61.9417ZM59.3333 170.417H29.65V74.975H59.3333V170.417ZM191.667 0H8.33333C6.1232 0 4.00358 0.877974 2.44078 2.44078C0.877974 4.00358 0 6.1232 0 8.33333L0 191.667C0 193.877 0.877974 195.996 2.44078 197.559C4.00358 199.122 6.1232 200 8.33333 200H191.667C193.877 200 195.996 199.122 197.559 197.559C199.122 195.996 200 193.877 200 191.667V8.33333C200 6.1232 199.122 4.00358 197.559 2.44078C195.996 0.877974 193.877 0 191.667 0Z" fill="black"/>
</svg>
