<svg width="200" height="200" viewBox="0 0 200 200" fill="none" xmlns="http://www.w3.org/2000/svg">
<path d="M0 100C0 44.7715 44.7715 0 100 0V0C155.228 0 200 44.7715 200 100V100C200 155.228 155.228 200 100 200V200C44.7715 200 0 155.228 0 100V100Z" fill="black"/>
<path d="M54 54H115.333V84.6667C115.333 101.603 101.603 115.333 84.6667 115.333C67.7299 115.333 54 101.603 54 84.6667V54Z" fill="white"/>
<path d="M84.6667 84.6667L115.333 115.333L146 84.6667V146H84.6667V84.6667Z" fill="white"/>
<path fill-rule="evenodd" clip-rule="evenodd" d="M106.351 106.351C100.802 111.901 93.1351 115.333 84.6667 115.333L84.6667 84.6667L106.351 106.351Z" fill="black"/>
</svg>
