<svg width="200" height="200" viewBox="0 0 200 200" fill="none" xmlns="http://www.w3.org/2000/svg">
<path d="M192 0H8C3.575 0 0 3.575 0 8V192C0 196.425 3.575 200 8 200H192C196.425 200 200 196.425 200 192V8C200 3.575 196.425 0 192 0ZM153.825 72.425C153.9 73.6 153.9 74.825 153.9 76.025C153.9 112.725 125.95 155 74.875 155C59.125 155 44.525 150.425 32.225 142.55C34.475 142.8 36.625 142.9 38.925 142.9C51.925 142.9 63.875 138.5 73.4 131.05C61.2 130.8 50.95 122.8 47.45 111.8C51.725 112.425 55.575 112.425 59.975 111.3C53.6932 110.024 48.0469 106.612 43.9954 101.645C39.9439 96.6771 37.7372 90.4602 37.75 84.05V83.7C41.425 85.775 45.75 87.05 50.275 87.225C46.4711 84.6899 43.3514 81.2553 41.1928 77.2257C39.0341 73.1962 37.9031 68.6963 37.9 64.125C37.9 58.95 39.25 54.225 41.675 50.125C48.6476 58.7084 57.3483 65.7286 67.2116 70.7291C77.075 75.7297 87.8802 78.5988 98.925 79.15C95 60.275 109.1 45 126.05 45C134.05 45 141.25 48.35 146.325 53.75C152.6 52.575 158.6 50.225 163.95 47.075C161.875 53.5 157.525 58.925 151.75 62.35C157.35 61.75 162.75 60.2 167.75 58.025C163.975 63.575 159.25 68.5 153.825 72.425Z" fill="black"/>
</svg>
